<?xml version="1.0" encoding="utf-8"?>
<!-- Generator: Adobe Illustrator 18.1.0, SVG Export Plug-In . SVG Version: 6.00 Build 0)  -->
<svg version="1.1" id="Layer_1" xmlns="http://www.w3.org/2000/svg" xmlns:xlink="http://www.w3.org/1999/xlink" x="0px" y="0px"
	 viewBox="0 0 24 24" enable-background="new 0 0 24 24" xml:space="preserve">
<g>
	<path fill="#89BA17" d="M-45.2,74.8c0,1.7-1.4,3-3,3H-99c-1.7,0-3-1.3-3-3V42.9c0-1.7,1.3-3,3-3h50.9c1.6,0,3,1.3,3,3V74.8z"/>
</g>
<path fill="#89BA17" d="M12,0C5.4,0,0,5.4,0,12c0,6.6,5.4,12,12,12c6.6,0,12-5.4,12-12C24,5.4,18.6,0,12,0z M17,9.1
	c0,0-3.7,2.2-5.4,3.2v5.6h0.6c0.4,0,0.6,0.3,0.6,0.7c0,0.4-0.3,0.7-0.6,0.7H9.5c-0.4,0-0.6-0.3-0.6-0.7c0-0.4,0.3-0.7,0.6-0.7h0.7
	v-5.7V6.6V5.2c0-0.3,0.3-0.6,0.6-0.6c0.2,0,6.3,3.7,6.3,3.7v0C17.2,8.5,17.2,9,17,9.1z"/>
</svg>
