<svg xmlns="http://www.w3.org/2000/svg" xmlns:xlink="http://www.w3.org/1999/xlink" version="1.1" id="Layer_1" x="0px" y="0px" viewBox="0 0 24 24" enable-background="new 0 0 24 24" xml:space="preserve">
  <path fill="#55039e" d="M12 0C5.4 0 0 5.4 0 12c0 6.6 5.4 12 12 12 6.6 0 12-5.4 12-12C24 5.4 18.6 0 12 0zM17 9.1c0 0-3.7 2.2-5.4 3.2v5.6h0.6c0.4 0 0.6 0.3 0.6 0.7 0 0.4-0.3 0.7-0.6 0.7H9.5c-0.4 0-0.6-0.3-0.6-0.7 0-0.4 0.3-0.7 0.6-0.7h0.7v-5.7V6.6 5.2c0-0.3 0.3-0.6 0.6-0.6 0.2 0 6.3 3.7 6.3 3.7v0C17.2 8.5 17.2 9 17 9.1z"/>
</svg>
