<?xml version="1.0" encoding="utf-8"?>
<!-- Generator: Adobe Illustrator 15.0.0, SVG Export Plug-In . SVG Version: 6.00 Build 0)  -->
<!DOCTYPE svg PUBLIC "-//W3C//DTD SVG 1.1//EN" "http://www.w3.org/Graphics/SVG/1.1/DTD/svg11.dtd">
<svg version="1.1" id="Layer_1" xmlns="http://www.w3.org/2000/svg" xmlns:xlink="http://www.w3.org/1999/xlink" x="0px" y="0px"
	 width="60px" height="81px" viewBox="0 0 46 62" enable-background="new 0 0 46 62" xml:space="preserve">
<g id="Layer_67_3_">
	<g>
		<path fill="#002661" d="M8.501,24.659l33.137-12.393c3.113-1.16,4.708-4.671,3.561-7.844c-1.146-3.172-4.581-4.799-7.695-3.629
			L4.368,13.157c-3.113,1.177-4.707,4.689-3.574,7.858C1.954,24.187,5.39,25.809,8.501,24.659z"/>
		<path fill="#002661" d="M37.503,19.068L4.368,31.455c-3.113,1.163-4.707,4.674-3.574,7.832c1.16,3.172,4.596,4.8,7.707,3.644
			l33.137-12.377c3.113-1.177,4.708-4.687,3.561-7.856C44.052,19.534,40.617,17.915,37.503,19.068z"/>
		<path fill="#002661" d="M37.503,37.359L4.368,49.736c-3.113,1.163-4.707,4.673-3.574,7.848c1.16,3.157,4.596,4.791,7.707,3.627
			l33.137-12.388c3.113-1.149,4.708-4.678,3.561-7.835C44.052,37.832,40.617,36.186,37.503,37.359z"/>
	</g>
</g>
</svg>
