<svg version="1.2" xmlns="http://www.w3.org/2000/svg" viewBox="0 0 24 24" width="24" height="24">
	<title>missingDepFlag-svg</title>
	<style>
		.s0 { fill: #eb1328 }
	</style>
	<g id="Layer">
	</g>
	<path id="Layer" fill-rule="evenodd" class="s0" d="m24 12c0 6.6-5.4 12-12 12-6.6 0-12-5.4-12-12 0-6.6 5.4-12 12-12 6.6 0 12 5.4 12 12zm-6.9-3.7c0 0-6.1-3.7-6.3-3.7-0.3 0-0.6 0.3-0.6 0.6v12.7h-0.7c-0.3 0-0.6 0.3-0.6 0.7 0 0.4 0.2 0.7 0.6 0.7h2.7c0.3 0 0.6-0.3 0.6-0.7 0-0.4-0.2-0.7-0.6-0.7h-0.6v-5.6c1.7-1 5.4-3.2 5.4-3.2 0.2-0.1 0.2-0.6 0.1-0.8z"/>
	<path id="Layer" class="s1" d="m-45.2 74.8c0 1.7-1.4 3-3 3h-50.8c-1.7 0-3-1.3-3-3v-31.9c0-1.7 1.3-3 3-3h50.9c1.6 0 3 1.3 3 3v31.9z"/>
</svg>