<?xml version="1.0" encoding="utf-8"?>
<!-- Generator: Adobe Illustrator 16.0.2, SVG Export Plug-In . SVG Version: 6.00 Build 0)  -->
<!DOCTYPE svg PUBLIC "-//W3C//DTD SVG 1.1//EN" "http://www.w3.org/Graphics/SVG/1.1/DTD/svg11.dtd">
<svg version="1.1" id="Layer_1" xmlns="http://www.w3.org/2000/svg" xmlns:xlink="http://www.w3.org/1999/xlink" x="0px" y="0px"
	 width="16px" height="16px" viewBox="0 0 16 16" enable-background="new 0 0 16 16" xml:space="preserve">
<g>
	<path fill="#D97D00" d="M4.928,8.464L4.906,8.193C4.844,7.63,5.031,7.016,5.553,6.39c0.469-0.552,0.729-0.959,0.729-1.428
		c0-0.532-0.333-0.886-0.99-0.896c-0.375,0-0.792,0.125-1.053,0.323l-0.25-0.657c0.344-0.25,0.938-0.417,1.49-0.417
		c1.199,0,1.741,0.74,1.741,1.532c0,0.708-0.396,1.219-0.896,1.813c-0.459,0.542-0.626,1-0.595,1.532L5.74,8.464H4.928z
		 M4.698,9.923c0-0.386,0.261-0.656,0.625-0.656c0.365,0,0.615,0.271,0.615,0.656c0,0.365-0.24,0.646-0.625,0.646
		C4.948,10.569,4.698,10.288,4.698,9.923z"/>
	<path fill="#D97D00" d="M8.275,9.923c0-0.375,0.26-0.646,0.614-0.646c0.375,0,0.615,0.271,0.615,0.646
		c0,0.365-0.24,0.646-0.615,0.646C8.525,10.569,8.275,10.288,8.275,9.923z M8.535,8.433L8.39,3.43h1.001L9.244,8.433H8.535z"/>
</g>
<g>
	<circle fill="none" cx="6.875" cy="6.833" r="5.208"/>
	<path fill="#D97D00" d="M11.664,9.79l0.418,0.417c0.631-0.972,1.001-2.128,1.001-3.374c0-3.429-2.779-6.208-6.208-6.208
		S0.667,3.405,0.667,6.833c0,3.428,2.779,6.208,6.208,6.208c1.385,0,2.659-0.459,3.691-1.226l-0.464-0.464L11.664,9.79z
		 M1.667,6.833c0-2.876,2.332-5.208,5.208-5.208c2.876,0,5.208,2.332,5.208,5.208c0,2.875-2.332,5.208-5.208,5.208
		C3.999,12.041,1.667,9.709,1.667,6.833z"/>
	<path fill="#D97D00" d="M14.992,13.205l0.043-0.044l-2.953-2.954L11.664,9.79l-1.562,1.562l0.464,0.464l2.907,2.907l0.044-0.044
		c0.348,0.157,0.823,0.059,1.177-0.296C15.05,14.028,15.148,13.553,14.992,13.205z"/>
</g>
</svg>
