<svg xmlns="http://www.w3.org/2000/svg" width="30.1276593262279" height="30.702127435618706" version="1.1"><rect id="backgroundrect" width="100%" height="100%" x="0" y="0" fill="none" stroke="none" class=""/>



<g class="currentLayer"><title>Layer 1</title><path fill="#f17c1d" d="M11.43973966247982,1.796283442139745 C12.598886362313209,1.6217311794257498 13.734850128149931,1.2402098052080224 14.914861468580323,1.237716201454965 C18.378391807682487,1.0706447500001426 21.869741667580666,2.494492492995719 24.38972659301845,5.047942736126135 C27.957580135105637,8.631251329269114 29.48997207228538,14.398956810090068 28.133770433480308,19.455985221289755 C27.92280573411063,20.328746534859725 27.53333244296661,21.131686943344103 27.248182354807597,21.974525011877375 C27.062718882834254,22.318642329799246 27.375688491789266,22.58795153512942 27.56347025716227,22.817363080410665 C28.293732678057314,23.630277903907253 29.021676805552676,24.445686331156914 29.749620933048043,25.261094758406564 C29.749620933048043,25.580276038797873 29.751939226447718,25.896963715436115 29.751939226447718,26.216144995827413 C26.907393225056573,26.959238914238416 24.037345996269103,27.57765264499656 21.188163408078637,28.30079773338311 C21.058338977697293,28.188585564495543 20.79869011693462,27.96166762296735 20.668865686553275,27.849455454079784 C21.24148415627097,24.692553102709564 21.902197775175996,21.55061237385768 22.581457741278363,18.41615245626497 C22.757648039653038,18.413658852511915 23.11234692980206,18.406178041252737 23.290855521576404,18.403684437499688 C24.31785949762879,19.169220789688197 25.092169493117492,20.25892562977413 26.049624667179867,21.12420613208493 C27.236590887809264,18.633095982780937 27.466101934376272,15.718073195457244 27.01867130824058,12.990070689612832 C26.262907659949217,8.721021064379165 23.362722616966067,4.980615434793593 19.55144826791388,3.506895616736879 C17.580898878197118,2.649095925685255 15.404021375910016,2.6042110581302276 13.322193903009246,2.871026659707332 C12.631342469908544,2.955809187311271 11.708661696841164,3.5193636355021636 11.203273735713807,2.7214104345239094 C11.173135921518142,2.38976113536732 11.34700792649315,2.0980094962596465 11.43973966247982,1.796283442139745 z" id="svg_2" class=""/><path fill="#f17c1d" d="M8.257384346746171,2.3719053503236474 C8.908514926644743,2.0879560946525633 9.281582625447843,2.982521891280052 9.0915729900326,3.5529332278936496 C8.5609363252754,6.146168908004799 8.046519995248769,8.746943063930225 7.513566139815773,11.340178744041374 C7.469539516975656,11.860333575226457 7.001467000464938,12.674488963168331 6.452292810301371,12.25987279338312 C5.532368112010506,11.531153464669716 4.832576527920224,10.528536181370926 3.9775331685516346,9.711867968157627 C2.156221297376266,14.084183940438056 2.7795455891652927,19.50937370144578 5.6551792178276745,23.178098597727057 C7.88663383861887,26.145745243280615 11.35778547096073,28.045441148478318 14.914673158307027,27.960005089249847 C16.00838715728257,28.02031289576406 17.06966048679697,27.666004532493062 18.15410572306933,27.638363454507385 C18.619861048904248,27.698671261021595 18.585103188767313,28.32687757887797 18.74267215472142,28.68118594214897 C17.894580367380215,29.11590471410559 16.970021287737758,29.294315308376806 16.052413780122684,29.452623300476613 L14.131462709888105,29.452623300476613 C10.785439374039209,29.068161033948506 7.4417332288661076,27.63585062923595 5.129176934422064,24.914460860282098 C2.6868579621334656,22.022198972871312 1.3660592769299549,18.04690939347612 1.6232674419432702,14.129414795323717 C1.6464393487012274,12.161872607797521 2.309155881978778,10.319971683842606 2.91857702971303,8.500686187330524 C2.0241414288559154,7.548325409460246 1.104216730565048,6.621092884304223 0.2584421338996423,5.61596277573401 C-0.09145365814549938,5.301859616805819 0.022088684968487104,4.7892432614350104 0.003551159562122404,4.359550140021246 C2.7563736824073355,3.7037027441791803 5.502244633225163,3.0177014450800086 8.257384346746171,2.3719053503236474 z" id="svg_3" class=""/></g></svg>