<?xml version="1.0" encoding="utf-8"?>
<!-- Generator: Adobe Illustrator 16.0.2, SVG Export Plug-In . SVG Version: 6.00 Build 0)  -->
<!DOCTYPE svg PUBLIC "-//W3C//DTD SVG 1.1//EN" "http://www.w3.org/Graphics/SVG/1.1/DTD/svg11.dtd">
<svg version="1.1" id="Layer_1" xmlns="http://www.w3.org/2000/svg" xmlns:xlink="http://www.w3.org/1999/xlink" x="0px" y="0px"
	 width="24px" height="24px" viewBox="0 0 24 24" enable-background="new 0 0 24 24" xml:space="preserve">
<g>
	<path fill="#3A3B3B" d="M23.161,23.161c-8.162-0.766-14.159-0.766-22.321,0c0.766-8.164,0.766-14.159,0-22.321
		c8.162,0.766,14.159,0.766,22.321,0C22.396,9.002,22.396,14.997,23.161,23.161z"/>
</g>
<g>
	<g>
		<path fill="#010101" d="M17.8,6.201c-4.24,0.398-7.358,0.398-11.598,0c0.398,4.241,0.398,7.356,0,11.599
			c4.24-0.398,7.358-0.398,11.598,0C17.401,13.558,17.401,10.442,17.8,6.201z M6.878,17.122c0.351-3.746,0.352-6.499,0-10.244
			c3.746,0.352,6.5,0.351,10.244,0c-0.35,3.746-0.352,6.499,0,10.245C13.376,16.771,10.624,16.771,6.878,17.122z"/>
	</g>
</g>
<g>
	<g>
		<path fill="#BCBCBC" d="M23.159,0.84c-8.16,0.766-14.157,0.766-22.318,0c0.766,8.162,0.766,14.159,0,22.321
			c8.162-0.768,14.158-0.768,22.318,0C22.396,14.999,22.396,9.001,23.159,0.84z M1.803,22.196c0.701-7.457,0.701-12.936,0-20.394
			c7.458,0.7,12.937,0.7,20.396,0c-0.701,7.458-0.701,12.937,0,20.394C14.739,21.497,9.261,21.497,1.803,22.196z"/>
	</g>
</g>
<g>
	<path fill="#B3B3B3" d="M17.136,17.134c-3.756-0.352-6.514-0.352-10.27,0.002c0.353-3.756,0.353-6.515,0-10.27
		c3.756,0.352,6.514,0.352,10.27,0C16.782,10.621,16.782,13.38,17.136,17.134z"/>
</g>
</svg>
