<?xml version="1.0" encoding="utf-8"?>
<!-- Generator: Adobe Illustrator 16.0.2, SVG Export Plug-In . SVG Version: 6.00 Build 0)  -->
<!DOCTYPE svg PUBLIC "-//W3C//DTD SVG 1.1//EN" "http://www.w3.org/Graphics/SVG/1.1/DTD/svg11.dtd">
<svg version="1.1" id="Layer_1" xmlns="http://www.w3.org/2000/svg" xmlns:xlink="http://www.w3.org/1999/xlink" x="0px" y="0px"
	 width="24px" height="24px" viewBox="0 0 24 24" enable-background="new 0 0 24 24" xml:space="preserve">
<g>
	<path fill="#3A3B3B" d="M23.16,23.16c-8.162-0.766-14.158-0.766-22.32,0c0.766-8.162,0.766-14.158,0-22.32
		c8.162,0.766,14.158,0.766,22.32,0C22.395,9.002,22.395,14.998,23.16,23.16z"/>
</g>
<g>
	<g>
		<path fill="#010101" d="M17.799,6.201c-4.24,0.398-7.357,0.398-11.598,0c0.398,4.241,0.398,7.357,0,11.598
			c4.24-0.398,7.357-0.398,11.598,0C17.4,13.559,17.4,10.442,17.799,6.201z M6.878,17.123c0.351-3.746,0.352-6.499,0-10.245
			c3.746,0.352,6.499,0.351,10.244,0c-0.351,3.746-0.352,6.5,0,10.244C13.376,16.771,10.623,16.771,6.878,17.123z"/>
	</g>
</g>
<g>
	<g>
		<path fill="#BCBCBC" d="M23.159,0.84c-8.16,0.766-14.157,0.766-22.319,0c0.766,8.162,0.766,14.158,0,22.32
			c8.162-0.766,14.159-0.766,22.319,0C22.395,14.998,22.395,9.001,23.159,0.84z M1.803,22.197c0.7-7.459,0.7-12.936,0-20.395
			c7.458,0.7,12.937,0.7,20.395,0c-0.7,7.458-0.7,12.936,0,20.395C14.739,21.498,9.261,21.498,1.803,22.197z"/>
	</g>
</g>
<g>
	<path fill="#71BF44" d="M17.135,17.135c-3.756-0.352-6.514-0.352-10.27,0c0.353-3.756,0.353-6.514,0-10.269
		c3.756,0.352,6.514,0.352,10.27,0C16.782,10.621,16.782,13.379,17.135,17.135z"/>
</g>
</svg>
