<?xml version="1.0" encoding="utf-8"?>
<!-- Generator: Adobe Illustrator 16.0.2, SVG Export Plug-In . SVG Version: 6.00 Build 0)  -->
<!DOCTYPE svg PUBLIC "-//W3C//DTD SVG 1.1//EN" "http://www.w3.org/Graphics/SVG/1.1/DTD/svg11.dtd">
<svg version="1.1" id="Layer_1" xmlns="http://www.w3.org/2000/svg" xmlns:xlink="http://www.w3.org/1999/xlink" x="0px" y="0px"
	 width="24px" height="24px" viewBox="0 0 24 24" enable-background="new 0 0 24 24" xml:space="preserve">
<g>
	<path fill="#3A3B3B" d="M23.16,23.4c-8.162-0.767-14.158-0.767-22.32,0c0.766-8.164,0.766-14.159,0-22.321
		c8.163,0.766,14.158,0.766,22.32,0C22.395,9.242,22.395,15.236,23.16,23.4z"/>
</g>
<g>
	<g>
		<path fill="#010101" d="M17.799,6.44c-4.24,0.398-7.357,0.398-11.598,0c0.398,4.241,0.398,7.356,0,11.599
			c4.241-0.398,7.357-0.398,11.598,0C17.4,13.797,17.4,10.681,17.799,6.44z M6.877,17.361c0.352-3.746,0.353-6.499,0-10.244
			c3.746,0.352,6.499,0.351,10.245,0c-0.353,3.746-0.354,6.499,0,10.244C13.376,17.01,10.624,17.01,6.877,17.361z"/>
	</g>
</g>
<g>
	<g>
		<path fill="#BCBCBC" d="M23.16,1.079c-8.162,0.766-14.158,0.766-22.32,0c0.766,8.162,0.766,14.159,0,22.321
			c8.162-0.769,14.158-0.769,22.32,0C22.395,15.238,22.395,9.241,23.16,1.079z M1.803,22.436c0.7-7.457,0.7-12.936,0-20.394
			c7.458,0.7,12.938,0.7,20.395,0c-0.701,7.458-0.701,12.937,0,20.394C14.74,21.736,9.261,21.736,1.803,22.436z"/>
	</g>
</g>
<g>
	<path fill="#BE2026" d="M17.135,17.373c-3.756-0.352-6.514-0.352-10.269,0.002c0.352-3.756,0.352-6.515,0-10.27
		c3.755,0.352,6.513,0.352,10.269,0C16.781,10.86,16.781,13.619,17.135,17.373z"/>
</g>
</svg>
